<svg viewBox="0 0 200 200" xmlns="http://www.w3.org/2000/svg" preserveAspectRatio="xMidYMid meet">
<g transform="translate(0.000000,200.000000) scale(0.100000,-0.100000)" fill="currentColor" stroke="none">
<path d="M955 1835 l-25 -24 0 -729 c0 -690 1 -735 20 -827 23 -111 24 -115
51 -115 24 0 31 18 53 135 15 80 17 168 14 818 l-3 729 -24 19 c-31 26 -57 24
-86 -6z m59 -11 c21 -8 24 -1451 4 -1560 -14 -80 -22 -80 -36 0 -18 94 -17
1552 1 1559 6 3 13 6 14 6 1 1 8 -2 17 -5z"/>
<path d="M990 1645 c0 -50 4 -85 10 -85 6 0 10 35 10 85 0 50 -4 85 -10 85 -6
0 -10 -35 -10 -85z"/>
</g>
</svg>
