<svg viewBox="0 0 1000 961" xmlns="http://www.w3.org/2000/svg" preserveAspectRatio="xMidYMid meet">
<g transform="translate(0.000000,961.000000) scale(0.100000,-0.100000)" fill="currentColor" stroke="none">
<path d="M3370 8368 c-215 -7 -366 -26 -510 -64 -499 -133 -893 -531 -1018
-1029 -68 -269 -71 -392 -71 -2580 0 -2178 3 -2312 70 -2579 137 -545 589
-960 1150 -1055 244 -42 276 -42 2544 -39 l2180 3 130 22 c592 99 1010 438
1184 959 104 311 103 271 99 2784 l-4 2155 -22 136 c-57 347 -174 602 -379
819 -284 302 -644 449 -1138 466 -236 8 -3987 10 -4215 2z m1200 -2561 c0
-185 -159 -374 -337 -402 l-43 -7 0 49 c0 153 131 323 285 373 87 27 95 26 95
-13z m1170 -297 l0 -170 135 0 135 0 0 -110 0 -109 -132 -3 -133 -3 -3 -420
c-2 -419 -2 -420 20 -465 33 -65 74 -85 171 -85 l77 1 0 -113 0 -112 -57 -7
c-173 -21 -336 16 -413 95 -83 85 -83 87 -90 631 l-5 475 -102 3 -103 3 0 109
0 110 105 0 105 0 0 170 0 170 145 0 145 0 0 -170z m-1765 -185 c33 -9 88 -27
123 -40 84 -34 126 -32 235 11 213 85 434 42 555 -108 l24 -29 -29 -21 c-55
-42 -105 -103 -136 -168 -49 -99 -48 -253 2 -355 38 -78 107 -152 170 -184 22
-12 41 -27 41 -35 0 -26 -102 -221 -155 -296 -135 -192 -236 -231 -410 -159
-113 47 -225 48 -335 2 -181 -74 -266 -44 -405 145 -232 314 -304 735 -169
992 101 194 301 293 489 245z m2495 1 c0 -8 36 -126 79 -262 43 -137 109 -346
146 -464 86 -277 126 -400 130 -400 5 0 55 156 165 510 50 162 114 364 141
449 27 85 49 161 49 168 0 10 34 13 154 13 l155 0 -49 -137 c-27 -76 -77 -214
-110 -308 -34 -93 -74 -206 -90 -250 -16 -44 -72 -201 -125 -350 -53 -148
-105 -292 -114 -320 l-18 -50 -159 -3 -159 -2 -43 122 c-24 68 -66 184 -92
258 -27 74 -70 194 -95 265 -25 72 -57 159 -70 195 -55 146 -205 565 -205 572
0 4 70 8 155 8 126 0 155 -3 155 -14z"/>
</g>
</svg>
