<svg viewBox="0 0 1000 860" xmlns="http://www.w3.org/2000/svg" preserveAspectRatio="xMidYMid meet">
<g transform="translate(0.000000,860.000000) scale(0.100000,-0.100000)" fill="currentColor" stroke="none">
<path d="M4730 7769 c-569 -50 -1103 -271 -1585 -658 -357 -286 -522 -554
-465 -756 l13 -46 -92 -135 c-87 -129 -91 -138 -91 -189 0 -84 63 -145 148
-145 59 0 96 33 188 165 74 108 85 120 111 118 141 -7 286 66 469 239 990 932
2414 800 3297 -306 508 -637 766 -1483 726 -2378 -55 -1210 -670 -2264 -1587
-2722 -255 -128 -493 -192 -797 -216 -747 -60 -1695 450 -2252 1211 -72 98
-111 125 -175 116 -129 -17 -166 -139 -82 -264 278 -409 751 -814 1241 -1063
576 -293 1123 -370 1686 -236 628 150 1213 577 1626 1186 988 1458 814 3611
-389 4810 -1016 1012 -2475 1041 -3508 68 -165 -155 -275 -195 -238 -86 65
189 474 533 866 729 388 194 694 264 1150 264 292 0 424 -15 666 -75 1139
-279 2001 -1279 2273 -2635 51 -254 78 -506 94 -892 2 -60 7 -76 27 -99 76
-82 203 -66 251 33 23 48 23 109 -2 443 -129 1764 -1170 3130 -2634 3454 -293
65 -649 90 -935 65z"/>
<path d="M2355 6188 c-16 -6 -75 -36 -130 -67 -94 -53 -104 -56 -180 -59 -44
-2 -86 -9 -92 -14 -19 -15 -19 -4187 0 -4192 6 -2 51 -8 99 -13 76 -9 96 -16
157 -53 64 -38 182 -92 188 -86 1 1 -6 26 -17 54 -46 120 -18 244 75 338 71
71 125 94 225 94 118 0 231 -64 279 -158 18 -35 19 -35 30 -14 39 73 53 175
58 428 l6 251 28 17 c31 18 32 23 72 196 29 121 50 251 71 435 9 72 21 180 28
240 36 311 6 898 -63 1240 -58 281 -75 339 -107 360 l-31 20 -1 185 c0 102 -5
225 -10 273 -9 86 -47 237 -59 237 -3 -1 -19 -21 -34 -45 -112 -177 -395 -181
-521 -8 -72 100 -83 211 -31 336 8 19 3 20 -40 5z m255 -914 c95 -28 200 -157
200 -245 0 -16 -6 -14 -45 12 -148 100 -347 102 -510 4 l-57 -35 7 37 c33 179
219 282 405 227z m-100 -282 c0 -46 63 -58 82 -17 7 16 17 24 26 20 7 -3 21
-5 29 -5 11 0 14 -6 10 -22 -14 -50 49 -82 73 -37 18 34 55 3 55 -46 0 -47 24
-67 57 -46 31 19 68 -22 43 -49 -32 -36 -3 -90 40 -74 10 4 21 1 26 -7 15 -23
10 -47 -10 -54 -41 -13 -29 -75 14 -75 22 0 25 -5 25 -35 0 -31 -3 -35 -25
-35 -17 0 -28 -7 -34 -22 -10 -27 3 -58 24 -58 8 0 15 -6 15 -14 0 -29 -13
-46 -35 -46 -55 0 -73 -34 -38 -72 25 -28 -13 -67 -46 -46 -37 23 -84 -33 -52
-65 7 -7 2 -16 -15 -30 -25 -19 -25 -19 -45 2 -11 11 -26 21 -33 21 -21 0 -47
-35 -40 -55 4 -10 1 -21 -7 -26 -25 -16 -49 -9 -59 16 -14 38 -58 35 -73 -5
-15 -39 -67 -45 -67 -7 0 47 -56 65 -81 26 -20 -29 -74 -8 -58 22 23 43 -40
81 -71 44 -23 -28 -64 20 -44 51 25 37 3 68 -42 61 -31 -5 -36 -3 -47 20 -9
21 -9 27 1 31 46 15 31 82 -18 82 -39 0 -44 49 -7 65 34 15 36 62 3 75 -41 15
-38 70 4 70 36 0 56 30 40 60 -6 11 -15 20 -20 20 -14 0 -12 23 3 44 11 15 17
16 34 7 17 -9 26 -7 45 9 22 18 22 20 6 49 -21 38 8 75 42 53 43 -26 90 0 69
39 -19 36 37 53 69 21 12 -12 26 -22 31 -22 16 0 41 30 41 49 0 24 9 31 37 31
15 0 23 -6 23 -18z m142 -1135 c71 -32 133 -94 167 -166 l26 -56 0 -355 0
-355 -33 -67 c-99 -201 -348 -252 -509 -104 -112 102 -126 169 -121 574 4 272
5 290 27 346 71 180 270 263 443 183z"/>
<path d="M2382 4820 c-150 -75 -214 -249 -147 -399 111 -246 450 -248 563 -2
119 257 -162 528 -416 401z m201 -61 c85 -23 156 -121 157 -215 1 -204 -254
-301 -389 -148 -150 170 13 424 232 363z"/>
<path d="M2457 3735 c-51 -18 -85 -50 -109 -103 -29 -64 -28 -641 1 -706 64
-146 258 -154 333 -13 22 40 23 53 26 339 4 347 -1 381 -67 441 -59 53 -117
67 -184 42z"/>
</g>
</svg>
