<svg viewBox="0 0 1000 993" xmlns="http://www.w3.org/2000/svg" preserveAspectRatio="xMidYMid meet">
<g transform="translate(0.000000,993.000000) scale(0.100000,-0.100000)" fill="currentColor" stroke="none">
<path d="M3270 8763 c-115 -19 -234 -86 -322 -181 -90 -98 -104 -127 -309
-629 -37 -91 -73 -229 -95 -363 -28 -165 -33 -1718 -7 -1770 85 -165 472 -163
553 4 19 41 20 59 20 647 0 618 5 707 40 785 23 54 22 54 106 -2 158 -107 329
-161 472 -151 42 3 84 8 92 11 8 4 41 71 72 149 52 130 152 375 289 712 l52
129 -33 61 c-195 356 -645 646 -930 598z m171 -247 c138 -68 364 -232 406
-295 50 -74 10 -171 -70 -171 -36 0 -38 1 -259 156 -40 28 -118 77 -173 108
-137 78 -169 118 -146 179 28 74 120 83 242 23z m-266 -873 c34 -16 172 -184
198 -241 23 -49 -66 -59 -130 -14 -96 66 -215 236 -186 265 12 13 82 7 118
-10z"/>
<path d="M6465 8756 c-191 -45 -433 -202 -588 -381 -96 -111 -195 -273 -177
-291 5 -5 31 -65 58 -134 28 -69 103 -253 167 -410 64 -157 128 -315 142 -353
31 -80 36 -82 173 -81 150 1 287 48 435 149 75 52 80 53 96 23 40 -76 42 -101
48 -784 l6 -661 27 -36 c115 -150 503 -121 548 41 13 49 13 1447 0 1602 -22
251 -56 386 -160 635 -35 83 -75 183 -91 223 -129 340 -403 523 -684 458z
m215 -211 c36 -19 50 -43 50 -88 0 -47 -27 -78 -108 -120 -79 -42 -246 -149
-279 -179 -12 -12 -31 -26 -42 -32 -11 -6 -38 -24 -60 -39 -87 -62 -181 -32
-181 58 0 67 33 107 177 213 230 168 367 226 443 187z m184 -891 c26 -10 19
-37 -25 -100 -90 -127 -169 -194 -231 -194 -80 1 -76 21 36 169 90 118 149
152 220 125z"/>
<path d="M4362 8028 c-6 -7 -28 -58 -51 -113 -22 -55 -78 -194 -126 -310 -268
-659 -253 -586 -128 -652 102 -54 177 -74 288 -74 190 0 282 55 344 207 18 43
48 115 66 159 72 172 124 313 131 351 17 108 -90 270 -238 360 -109 67 -259
104 -286 72z"/>
<path d="M5405 8014 c-197 -70 -365 -250 -365 -392 0 -45 115 -350 210 -557
62 -135 152 -186 331 -186 142 0 320 63 371 132 l20 26 -45 114 c-25 63 -96
238 -158 389 -61 151 -129 320 -151 375 -21 55 -46 106 -55 113 -25 19 -81 14
-158 -14z"/>
<path d="M5610 6515 c11 -13 -122 -15 -1171 -17 l-1184 -3 -3 -91 -3 -91 318
-6 c458 -9 619 -31 776 -105 602 -284 625 -1067 39 -1361 -145 -73 -361 -127
-802 -201 -568 -95 -851 -97 -1060 -6 -281 122 -430 354 -399 623 24 211 129
545 213 677 l36 56 0 200 c0 110 -3 200 -6 200 -15 0 -187 -92 -241 -128 -156
-106 -323 -307 -386 -464 -171 -429 -12 -994 378 -1338 105 -93 303 -210 453
-269 l53 -21 2339 0 2340 0 91 40 c516 222 821 640 856 1171 19 284 -116 597
-341 791 -101 87 -247 179 -323 202 l-23 7 0 -202 0 -202 54 -111 c83 -169
155 -409 178 -592 39 -311 -154 -575 -494 -675 -92 -27 -422 -38 -576 -20
-313 38 -934 159 -1067 208 -268 98 -437 261 -517 499 -38 114 -34 338 8 457
41 113 84 185 163 269 99 106 292 224 396 241 17 3 70 12 119 21 114 21 385
36 643 36 l202 0 3 91 c2 50 1 93 -1 95 -2 2 -231 4 -509 4 -447 0 -503 2
-492 15 15 18 -1 20 -18 3 -9 -9 -15 -9 -24 0 -17 17 -33 15 -18 -3z"/>
<path d="M1663 4014 c-2 -6 -2 -402 0 -880 3 -750 6 -885 21 -984 125 -852
612 -1309 1506 -1412 169 -19 3363 -19 3530 0 902 105 1390 566 1507 1422 16
122 18 217 18 998 l0 862 -3289 3 c-2434 1 -3290 -1 -3293 -9z m3371 -715
c106 -84 52 -249 -81 -249 -122 0 -180 154 -89 237 45 42 125 47 170 12z"/>
</g>
</svg>
