<svg viewBox="0 0 1000 874" xmlns="http://www.w3.org/2000/svg" preserveAspectRatio="xMidYMid meet">
<g transform="translate(0.000000,874.000000) scale(0.100000,-0.100000)" fill="currentColor" stroke="none">
<path d="M1063 7720 c-69 -41 -63 199 -63 -2722 0 -2604 0 -2643 20 -2675 41
-68 -75 -63 1555 -63 l1475 0 0 -625 c0 -549 2 -625 15 -626 8 0 429 0 935 0
506 0 927 0 935 0 13 1 15 77 15 626 l0 625 1475 0 c1630 0 1514 -5 1555 63
31 50 31 5304 0 5354 -10 18 -33 39 -49 48 -27 13 -429 15 -3933 15 -3853 0
-3903 0 -3935 -20z m3968 -46 c17 -21 0 -49 -31 -49 -31 0 -48 28 -31 49 8 9
21 16 31 16 10 0 23 -7 31 -16z m3769 -2269 l0 -2145 -3800 0 -3800 0 0 2145
0 2145 3800 0 3800 0 0 -2145z"/>
</g>
</svg>
