<svg viewBox="0 0 1000 854" xmlns="http://www.w3.org/2000/svg" preserveAspectRatio="xMidYMid meet">
<g transform="translate(0.000000,854.000000) scale(0.100000,-0.100000)" fill="currentColor" stroke="none">
<path d="M1016 7318 c-27 -38 -24 -4588 2 -4611 17 -16 136 -17 1510 -17
l1492 0 0 -740 c0 -698 1 -740 18 -741 21 0 1912 0 1930 1 9 0 12 155 12 740
l0 740 1493 0 c1435 0 1495 1 1510 18 28 30 26 4591 -1 4615 -17 16 -308 17
-3985 17 l-3966 0 -15 -22z m7814 -2298 l0 -2160 -3830 0 -3830 0 0 2160 0
2160 3830 0 3830 0 0 -2160z m-3600 -2341 c0 -18 -57 -66 -108 -91 -67 -33
-178 -33 -242 0 -45 24 -110 79 -110 94 0 4 104 8 230 8 160 0 230 -3 230 -11z"/>
</g>
</svg>
