<svg viewBox="0 0 516 638" xmlns="http://www.w3.org/2000/svg" preserveAspectRatio="xMidYMid meet">
<g transform="translate(0.000000,638.000000) scale(0.100000,-0.100000)" fill="currentColor" stroke="none">
<path d="M1057 5576 c-74 -20 -127 -63 -162 -131 l-30 -59 0 -2405 0 -2406 30
-60 c34 -67 92 -118 154 -135 27 -7 616 -9 1832 -8 l1794 3 41 22 c48 25 97
78 122 131 16 35 17 175 20 2417 2 1679 -1 2395 -9 2432 -16 80 -63 142 -133
178 l-60 30 -1775 2 c-1434 1 -1785 -1 -1824 -11z m3581 -164 c12 -7 30 -25
40 -39 16 -26 17 -157 17 -2393 0 -2660 7 -2418 -74 -2440 -27 -7 -591 -9
-1782 -8 -1889 3 -1773 0 -1798 55 -8 17 -11 731 -11 2398 l0 2374 24 27 c17
20 36 30 72 35 98 13 3487 5 3512 -9z m173 -2253 c15 -30 -22 -70 -49 -53 -22
14 -27 41 -12 59 18 22 48 18 61 -6z"/>
</g>
</svg>
