<svg viewBox="0 0 1000 667" xmlns="http://www.w3.org/2000/svg" preserveAspectRatio="xMidYMid meet">
<g transform="translate(0.000000,667.000000) scale(0.100000,-0.100000)" fill="currentColor" stroke="none">
<path d="M929 6052 c-43 -22 -59 -38 -81 -81 l-28 -53 0 -2749 0 -2749 -323 0
-323 0 2 -73 c3 -106 -6 -142 -36 -142 -31 0 -38 24 -39 133 -1 81 -1 82 -26
82 -25 0 -25 -1 -25 -89 0 -100 11 -144 49 -185 45 -49 75 -56 255 -56 162 0
164 0 187 -25 l24 -25 244 0 243 0 30 25 30 25 3888 0 3888 0 30 -25 30 -25
243 0 244 0 24 25 c23 25 25 25 187 25 180 0 210 7 255 56 38 41 49 85 49 185
0 88 0 89 -25 89 -25 0 -25 -1 -26 -82 -1 -109 -8 -133 -39 -133 -30 0 -37 29
-36 139 l2 76 -323 0 -323 0 0 2749 0 2749 -28 53 c-22 43 -38 59 -81 81 l-53
28 -4018 0 -4018 0 -53 -28z m3629 -104 c7 -7 12 -35 12 -63 0 -28 5 -56 12
-63 9 -9 116 -12 418 -12 302 0 409 3 418 12 7 7 12 35 12 64 0 31 5 56 14 63
10 8 476 11 1784 9 l1772 -3 27 -28 28 -27 0 -2593 0 -2592 -4055 0 -4055 0 0
2592 0 2591 24 26 c13 14 33 27 45 29 58 12 3533 6 3544 -5z m1145 -5548 c-3
-11 -15 -30 -27 -42 l-21 -23 -659 1 -658 1 -19 24 c-48 64 -101 59 681 59
700 0 708 0 703 -20z"/>
</g>
</svg>
