<?xml version="1.0" encoding="UTF-8"?>
<svg id="Artwork" xmlns="http://www.w3.org/2000/svg" width="339.687" height="80.786" version="1.1" viewBox="0 0 339.687 80.786">
  <!-- Generator: Adobe Illustrator 29.4.0, SVG Export Plug-In . SVG Version: 2.1.0 Build 152)  -->
  <defs>
    <style>
      .st0 {
        fill: #ff1736;
      }
    </style>
  </defs>
  <g>
    <g>
      <path d="M75.764,42.518c0-23.138,13.062-37.719,33.466-37.719,16.556,0,29.061,10.177,30.984,25.416h-11.239c-2.025-9.366-9.822-15.492-19.745-15.492-13.265,0-21.871,10.885-21.871,27.795,0,17.062,8.505,27.846,21.922,27.846,10.176,0,17.416-5.215,19.694-14.024h11.29c-2.784,15.088-14.227,23.947-31.035,23.947-20.505,0-33.466-14.479-33.466-37.769Z"/>
      <path d="M145.504,63.934c0-9.316,7.139-15.037,19.796-15.746l14.581-.86v-4.101c0-5.924-4-9.468-10.683-9.468-6.329,0-10.278,3.037-11.24,7.797h-10.328c.607-9.62,8.81-16.708,21.973-16.708,12.911,0,21.163,6.835,21.163,17.518v36.706h-10.48v-8.759h-.253c-3.088,5.924-9.821,9.67-16.809,9.67-10.43,0-17.72-6.48-17.72-16.049ZM179.881,59.124v-4.202l-13.113.81c-6.531.456-10.227,3.342-10.227,7.898,0,4.657,3.848,7.695,9.721,7.695,7.645,0,13.619-5.266,13.619-12.201Z"/>
      <path d="M201.352,25.81h10.43v9.062h.253c1.772-6.227,6.531-9.923,12.81-9.923,1.569,0,2.937.253,3.746.405v10.176c-.86-.354-2.784-.607-4.911-.607-7.037,0-11.391,4.709-11.391,12.252v31.896h-10.937V25.81Z"/>
      <path d="M278.767,63.427c-1.519,9.721-10.733,16.657-22.935,16.657-15.645,0-25.111-10.581-25.111-27.391,0-16.707,9.619-27.846,24.656-27.846,14.783,0,23.997,10.43,23.997,26.58v3.747h-37.616v.658c0,9.265,5.568,15.391,14.327,15.391,6.228,0,10.835-3.139,12.303-7.797h10.379ZM241.808,47.529h26.631c-.253-8.15-5.417-13.872-13.062-13.872s-13.012,5.822-13.569,13.872Z"/>
    </g>
    <g>
      <path class="st0" d="M48.396,19.629c-6.518-.482-12.048,3.641-15.133,3.641-3.13,0-7.956-3.537-13.073-3.44-6.719.098-12.912,3.91-16.377,9.926-6.979,12.114-1.782,30.064,5.016,39.894,3.325,4.803,7.291,10.216,12.5,10.019,5.014-.197,6.911-3.243,12.972-3.243s7.766,3.243,13.068,3.146c5.397-.1,8.816-4.903,12.117-9.733,3.82-5.575,5.389-10.973,5.482-11.259-.119-.045-10.52-4.036-10.624-16.019-.094-10.018,8.177-14.834,8.553-15.066-4.695-6.915-11.947-7.678-14.502-7.867Z"/>
      <path class="st0" d="M44.374,13.14c2.768-3.346,4.631-8.005,4.118-12.64-3.984.158-8.803,2.654-11.661,5.998-2.559,2.962-4.807,7.706-4.196,12.246,4.441.343,8.973-2.256,11.739-5.604Z"/>
    </g>
  </g>
  <path d="M318.477,79.066h-9.974v-21.693h-20.66v-9.872h20.66v-21.693h9.974v21.693h20.71v9.872h-20.71v21.693Z"/>
</svg>